<?xml version="1.0" encoding="utf-8"?> 
<!-- Generated by Layerhero SVG Exporter: http://www.layerhero.com/photoshop-svg-exporter -->
<!DOCTYPE svg PUBLIC "-//W3C//DTD SVG 1.1//EN" "http://www.w3.org/Graphics/SVG/1.1/DTD/svg11.dtd">
<svg version="1.1" baseProfile="full" xmlns="http://www.w3.org/2000/svg" xmlns:xlink="http://www.w3.org/1999/xlink" xmlns:ev="http://www.w3.org/2001/xml-events" width="128" height="128" viewBox="0 0 128 128">
<g transform="scale(NaN)" ><path fill-rule="evenodd"  fill="rgb( 255, 255, 255 )"
 d="M64.000,128.000 C28.710,128.000 -0.000,99.290 -0.000,64.000 C-0.000,28.710 28.710,-0.000 64.000,-0.000 C99.290,-0.000 128.000,28.710 128.000,64.000 C128.000,99.290 99.290,128.000 64.000,128.000 ZM64.000,1.995 C29.810,1.995 1.995,29.810 1.995,64.000 C1.995,98.190 29.810,126.005 64.000,126.005 C98.190,126.005 126.005,98.190 126.005,64.000 C126.005,29.810 98.190,1.995 64.000,1.995 Z"/>
<path fill-rule="evenodd"  fill="rgb( 255, 255, 255 )"
 d="M70.342,103.020 C70.342,103.020 53.890,103.020 53.890,103.020 C53.890,103.020 53.890,64.000 53.890,64.000 C53.890,64.000 44.018,64.000 44.018,64.000 C44.018,64.000 44.018,50.993 44.018,50.993 C44.018,50.993 53.890,50.993 53.890,50.993 C53.890,50.993 53.890,43.061 53.890,43.061 C53.890,32.220 57.219,24.980 70.143,24.980 C70.143,24.980 80.214,24.980 80.214,24.980 C80.214,24.980 80.214,37.987 80.214,37.987 C80.214,37.987 74.183,37.987 74.183,37.987 C69.150,37.987 68.816,40.359 68.816,43.823 C68.816,43.823 68.797,50.993 68.797,50.993 C68.797,50.993 80.982,50.993 80.982,50.993 C80.982,50.993 79.559,64.000 79.559,64.000 C79.559,64.000 70.342,64.000 70.342,64.000 C70.342,64.000 70.342,103.020 70.342,103.020 Z"/>
</g></svg>
