<?xml version="1.0" encoding="utf-8"?> 
<!-- Generated by Layerhero SVG Exporter: http://www.layerhero.com/photoshop-svg-exporter -->
<!DOCTYPE svg PUBLIC "-//W3C//DTD SVG 1.1//EN" "http://www.w3.org/Graphics/SVG/1.1/DTD/svg11.dtd">
<svg version="1.1" baseProfile="full" xmlns="http://www.w3.org/2000/svg" xmlns:xlink="http://www.w3.org/1999/xlink" xmlns:ev="http://www.w3.org/2001/xml-events" width="128" height="128" viewBox="0 0 128 128">
<g transform="scale(NaN)" ><path fill-rule="evenodd"  fill="rgb( 255, 255, 255 )"
 d="M64.000,128.000 C28.710,128.000 -0.000,99.290 -0.000,64.000 C-0.000,28.710 28.710,-0.000 64.000,-0.000 C99.290,-0.000 128.000,28.710 128.000,64.000 C128.000,99.290 99.290,128.000 64.000,128.000 ZM64.000,1.995 C29.810,1.995 1.995,29.810 1.995,64.000 C1.995,98.190 29.810,126.005 64.000,126.005 C98.190,126.005 126.005,98.190 126.005,64.000 C126.005,29.810 98.190,1.995 64.000,1.995 Z"/>
<path fill-rule="evenodd"  fill="rgb( 255, 255, 255 )"
 d="M78.054,33.004 C84.253,32.895 87.552,35.142 90.703,38.000 C93.377,37.772 96.853,36.284 98.901,35.250 C99.565,34.889 100.228,34.527 100.892,34.166 C99.722,37.311 98.137,39.772 95.700,41.641 C95.158,42.056 94.621,42.616 93.943,42.880 C93.943,42.893 93.943,42.906 93.943,42.919 C97.416,42.884 100.280,41.325 103.000,40.479 C103.000,40.492 103.000,40.505 103.000,40.518 C101.571,42.778 99.637,45.070 97.574,46.715 C96.741,47.373 95.908,48.032 95.075,48.690 C95.121,52.349 95.021,55.840 94.333,58.915 C90.337,76.790 79.748,88.924 62.985,94.123 C56.966,95.989 47.239,96.756 40.342,95.052 C36.922,94.207 33.833,93.254 30.934,91.992 C29.324,91.292 27.832,90.533 26.405,89.669 C25.937,89.385 25.468,89.100 25.000,88.816 C26.556,88.863 28.375,89.289 30.114,89.010 C31.687,88.757 33.230,88.823 34.682,88.507 C38.302,87.716 41.516,86.671 44.285,85.059 C45.628,84.278 47.665,83.359 48.619,82.232 C46.821,82.264 45.191,81.849 43.856,81.380 C38.679,79.561 35.666,76.217 33.706,71.193 C35.274,71.364 39.793,71.771 40.850,70.884 C38.875,70.775 36.976,69.637 35.619,68.792 C31.455,66.199 28.059,61.850 28.084,55.158 C28.631,55.417 29.177,55.675 29.724,55.933 C30.770,56.371 31.833,56.607 33.081,56.863 C33.608,56.971 34.662,57.279 35.267,57.056 C35.241,57.056 35.215,57.056 35.189,57.056 C34.383,56.123 33.071,55.501 32.261,54.500 C29.590,51.195 27.086,46.110 28.670,40.053 C29.071,38.517 29.709,37.160 30.387,35.909 C30.413,35.921 30.439,35.934 30.465,35.947 C30.776,36.595 31.470,37.071 31.910,37.613 C33.274,39.295 34.957,40.810 36.673,42.144 C42.516,46.692 47.779,49.487 56.231,51.556 C58.375,52.081 60.853,52.482 63.414,52.486 C62.695,50.401 62.926,47.028 63.493,45.011 C64.917,39.938 68.011,36.280 72.550,34.321 C73.635,33.852 74.839,33.511 76.102,33.236 C76.753,33.159 77.404,33.081 78.054,33.004 Z"/>
</g></svg>
